<svg aria-hidden="true" style="position:absolute;width:0;height:0;overflow:hidden" xmlns="http://www.w3.org/2000/svg">
  <defs>
    <symbol id="logo" viewBox="0 0 107 32">
      <path fill="#ff6b0a" style="fill:var(--color1, #ff6b0a)" d="M106.667 0v32H59.536V0h47.131zM74.42 8.811v13.927l.001.044a.842.842 0 0 1-.001.087c-.007.08.015.128.107.115a.485.485 0 0 1 .066-.001l.033.001h3.582c.075.001.112.001.129-.017s.016-.051.014-.116l-.001-.078V8.83l-.001-.033a.485.485 0 0 1 .001-.066c.008-.082-.02-.125-.109-.115-.018.002-.036.001-.054.001l-.028-.001h-3.55l-.062-.001c-.065-.001-.098-.001-.114.015s-.016.049-.015.116l.001.064zm19.579-.194h-5.863c-1.954 0-3.908 0-5.86-.002h-.133c-.066-.003-.089.028-.084.089a.486.486 0 0 1 0 .054v3.398c0 .072-.001.107.017.124s.051.017.118.016H85.923c.12 0 .18 0 .209.03s.029.087.029.2v10.335c-.001.059-.001.09.014.106.017.018.052.017.127.017h3.571c.111 0 .166 0 .193-.028s.027-.08.027-.186V12.488l-.001-.059c-.001-.063-.001-.097.015-.114.018-.019.055-.018.133-.018h3.798c.162 0 .162 0 .164-.159V8.759c.001-.072.001-.108-.016-.126s-.053-.017-.123-.016L94 8.618z"/>
      <path fill="#010101" style="fill:var(--color2, #010101)" d="m47.132 0 12.403 16-12.403 16H0V0h47.132zm-26.38 13.662.215.174a.371.371 0 0 0 .106-.107.256.256 0 0 1 .02-.026c.254-.302.507-.606.76-.91.507-.606 1.012-1.212 1.518-1.82.101-.122.097-.177-.018-.276a12.617 12.617 0 0 0-.277-.233c-.803-.657-1.685-1.17-2.684-1.467a9.43 9.43 0 0 0-2.043-.353c-.905-.061-1.802-.031-2.691.174-3.112.716-5.434 3.292-5.707 6.594a7.795 7.795 0 0 0 .225 2.638c.519 1.96 1.645 3.461 3.434 4.45.975.539 2.03.823 3.14.912.94.076 1.87.018 2.788-.189 1.553-.35 2.925-1.056 4.146-2.067a.333.333 0 0 0 .137-.289c-.004-1.572-.004-3.145-.003-4.717v-1.179a.66.66 0 0 0-.003-.062c-.003-.046-.006-.092.006-.134.015-.049-.012-.077-.037-.104-.021-.022-.042-.044-.039-.077.007-.054-.03-.062-.073-.062h-6.556l-.038.001c-.026.001-.052.002-.077-.001-.066-.007-.087.026-.083.087a.657.657 0 0 1 .001.077l-.001.038V17.839l-.001.074c-.001.063-.002.096.014.112s.052.017.125.016H19.772c.072-.001.107-.001.124.016.016.016.015.048.014.11l-.001.078v.679c0 .308 0 .311-.279.445-.818.391-1.681.503-2.573.391-.991-.123-1.784-.591-2.365-1.401-.378-.527-.585-1.122-.662-1.763-.097-.818.002-1.605.373-2.348.448-.892 1.125-1.533 2.098-1.827.682-.207 1.373-.153 2.056-.003.619.135 1.159.437 1.657.816.182.138.359.281.539.427zm18.346-2.98c-1.528-1.39-3.348-2.052-5.229-2.066-.869.002-1.518.072-2.207.251-1.998.521-3.563 1.638-4.602 3.422-1.067 1.83-1.283 3.793-.687 5.812.667 2.257 2.089 3.9 4.29 4.815 1.69.701 3.44.795 5.206.332 2.051-.537 3.624-1.725 4.654-3.578.869-1.562 1.102-3.238.778-4.987-.291-1.572-1.017-2.919-2.203-4zm-8.437 3.528c.666-1.227 1.729-1.815 2.762-1.838 2.094-.005 3.464 1.173 3.837 2.806.226.984.125 1.94-.358 2.834-.57 1.05-1.458 1.661-2.654 1.797-1.156.133-2.165-.194-2.99-1.025a3.579 3.579 0 0 1-.983-1.914c-.172-.928-.066-1.827.386-2.66z"/>
    </symbol>
    <symbol id="javascript" viewBox="0 0 32 32">
      <path fill="#f7df1e" style="fill:var(--color3, #f7df1e)" d="M0 0h32v32H0V0z"/>
      <path style="fill:var(--color4, #000)" d="m8.414 26.741 2.449-1.482c.473.838.902 1.546 1.933 1.546.988 0 1.611-.387 1.611-1.89V14.69h3.007v10.267c0 3.115-1.826 4.532-4.489 4.532-2.406 0-3.802-1.246-4.511-2.75zm10.634-.322 2.448-1.418c.645 1.053 1.482 1.826 2.964 1.826 1.246 0 2.041-.623 2.041-1.482 0-1.031-.816-1.396-2.191-1.997l-.752-.323c-2.17-.923-3.609-2.083-3.609-4.532 0-2.256 1.718-3.974 4.404-3.974 1.912 0 3.287.666 4.274 2.406l-2.341 1.504c-.516-.924-1.074-1.289-1.933-1.289-.881 0-1.439.558-1.439 1.289 0 .902.558 1.268 1.847 1.826l.752.322c2.556 1.096 3.995 2.212 3.995 4.726 0 2.707-2.127 4.189-4.983 4.189-2.792 0-4.597-1.332-5.477-3.072z"/>
    </symbol>
    <symbol id="icon-facebook" viewBox="0 0 24 24">
      <path d="M22 12.3038C22 6.74719 17.5229 2.24268 12 2.24268C6.47715 2.24268 2 6.74719 2 12.3038C2 17.3255 5.65684 21.4879 10.4375 22.2427V15.2121H7.89844V12.3038H10.4375V10.0872C10.4375 7.56564 11.9305 6.1728 14.2146 6.1728C15.3088 6.1728 16.4531 6.36931 16.4531 6.36931V8.84529H15.1922C13.95 8.84529 13.5625 9.6209 13.5625 10.4166V12.3038H16.3359L15.8926 15.2121H13.5625V22.2427C18.3432 21.4879 22 17.3257 22 12.3038Z" fill="currentColor"/>
    </symbol>
    <symbol id="icon-instagram" viewBox="0 0 24 24">
      <path d="M11.9988 4.62091C14.4032 4.62091 14.6878 4.63159 15.6332 4.67378C16.5123 4.71258 16.9864 4.85994 17.303 4.98311C17.7215 5.14509 18.0235 5.34194 18.3362 5.65465C18.6528 5.97129 18.8458 6.26994 19.0111 6.68838C19.1343 7.00503 19.2816 7.48253 19.3204 8.35822C19.3626 9.3076 19.3733 9.59218 19.3733 11.9932C19.3733 14.3942 19.3626 14.6821 19.3204 15.6281C19.2816 16.5072 19.1343 16.9813 19.0111 17.298C18.8491 17.7164 18.6528 18.0184 18.3396 18.3311C18.0229 18.6478 17.7243 18.8407 17.3064 19.0061C16.9898 19.1292 16.5117 19.2766 15.6366 19.3154C14.6872 19.3576 14.4026 19.3683 12.0016 19.3683C9.60062 19.3683 9.31266 19.3576 8.36666 19.3154C7.48759 19.2766 7.01346 19.1292 6.69682 19.0061C6.27838 18.8441 5.97635 18.6478 5.66308 18.3345C5.34644 18.0179 5.15353 17.7192 4.98817 17.3013C4.865 16.9847 4.71765 16.5066 4.67884 15.6315C4.63666 14.6821 4.62597 14.3975 4.62597 11.9965C4.62597 9.59556 4.63666 9.3076 4.67884 8.3616C4.71765 7.48253 4.865 7.0084 4.98817 6.69176C5.15015 6.27331 5.347 5.97129 5.65971 5.65802C5.97635 5.34137 6.275 5.14846 6.69344 4.98311C7.01009 4.85994 7.48759 4.71258 8.36328 4.67378C9.30872 4.63159 9.59387 4.62091 11.9982 4.62091H11.9988ZM11.9988 3.00056C9.55563 3.00056 9.25023 3.01125 8.29017 3.05343C7.33405 3.09561 6.67657 3.25028 6.1074 3.47187C5.51348 3.70359 5.01067 4.00955 4.5118 4.51236C4.00899 5.01179 3.70303 5.51404 3.47131 6.10459C3.24972 6.6777 3.09505 7.33123 3.05287 8.28736C3.01069 9.25079 3 9.55619 3 11.9994C3 14.4425 3.01069 14.7479 3.05287 15.708C3.09505 16.6641 3.24972 17.3216 3.47131 17.8908C3.70359 18.4847 4.00899 18.9875 4.5118 19.4864C5.01067 19.9852 5.51348 20.2951 6.10402 20.5235C6.67713 20.7451 7.33067 20.8997 8.28679 20.9419C9.24629 20.9841 9.55225 20.9948 11.9954 20.9948C14.4386 20.9948 14.7446 20.9841 15.7041 20.9419C16.6602 20.8997 17.3177 20.7451 17.8868 20.5235C18.4774 20.2951 18.9802 19.9858 19.4791 19.4864C19.9779 18.9869 20.2878 18.4847 20.5162 17.8941C20.7378 17.321 20.8924 16.6675 20.9346 15.7114C20.9768 14.7519 20.9875 14.4465 20.9875 12.0027C20.9875 9.55956 20.9768 9.25415 20.9346 8.29409C20.8924 7.33796 20.7378 6.68049 20.5162 6.11131C20.2912 5.52021 19.982 5.01683 19.4825 4.5174C18.9837 4.01797 18.4808 3.71201 17.8903 3.48366C17.3172 3.26207 16.6636 3.1074 15.7075 3.06522C14.7474 3.02303 14.442 3.01234 11.9988 3.01234V3.00056Z" fill="currentColor"/>
      <path d="M11.9985 7.37671C9.44683 7.37671 7.37598 9.447 7.37598 11.9993C7.37598 14.5516 9.44626 16.6219 11.9985 16.6219C14.5508 16.6219 16.6211 14.5516 16.6211 11.9993C16.6211 9.44756 14.5508 7.37671 11.9985 7.37671ZM11.9985 14.9976C10.3428 14.9976 9.00026 13.6551 9.00026 11.9993C9.00026 10.3435 10.3428 9.00099 11.9985 9.00099C13.6543 9.00099 14.9968 10.3435 14.9968 11.9993C14.9968 13.6551 13.6543 14.9976 11.9985 14.9976Z" fill="currentColor"/>
      <path d="M17.8822 7.19404C17.8822 7.79021 17.3991 8.27333 16.8029 8.27333C16.2068 8.27333 15.7236 7.79021 15.7236 7.19404C15.7236 6.59787 16.2068 6.11475 16.8029 6.11475C17.3991 6.11475 17.8822 6.59787 17.8822 7.19404Z" fill="currentColor"/>
    </symbol>
    <symbol id="icon-youtube" viewBox="0 0 24 24">
      <path d="M21.5933 7.20301C21.4794 6.78041 21.2568 6.39501 20.9477 6.08518C20.6386 5.77534 20.2537 5.55187 19.8313 5.43701C18.2653 5.00701 12.0003 5.00001 12.0003 5.00001C12.0003 5.00001 5.73633 4.99301 4.16933 5.40401C3.74725 5.52415 3.36315 5.75078 3.0539 6.06214C2.74464 6.3735 2.52062 6.75913 2.40333 7.18201C1.99033 8.74801 1.98633 11.996 1.98633 11.996C1.98633 11.996 1.98233 15.26 2.39233 16.81C2.62233 17.667 3.29733 18.344 4.15533 18.575C5.73733 19.005 11.9853 19.012 11.9853 19.012C11.9853 19.012 18.2503 19.019 19.8163 18.609C20.2388 18.4943 20.6241 18.2714 20.934 17.9622C21.2439 17.653 21.4677 17.2682 21.5833 16.846C21.9973 15.281 22.0003 12.034 22.0003 12.034C22.0003 12.034 22.0203 8.76901 21.5933 7.20301ZM9.99633 15.005L10.0013 9.00501L15.2083 12.01L9.99633 15.005Z" fill="currentColor"/>
    </symbol>
  </defs>
</svg>
